<svg viewBox="0 0 164 190" fill="none" xmlns="http://www.w3.org/2000/svg"><ellipse cx="82" cy="177" rx="61" ry="8" fill="#E5D8BF" opacity=".6"/><ellipse cx="82" cy="135" rx="61" ry="37" fill="#F7E8BD" stroke="#E5A3BA" stroke-width="2"/><path d="M32 94L23 48L62 76ZM132 94L141 48L102 76Z" fill="#F7E8BD" stroke="#E5A3BA" stroke-width="2"/><path d="M34 84L30 59L55 78ZM130 84L134 59L109 78Z" fill="#E8B882"/><ellipse cx="82" cy="98" rx="51" ry="39" fill="#FFF2CA" stroke="#E5A3BA" stroke-width="2"/><ellipse cx="64" cy="88" rx="12" ry="14" fill="#2D272C"/><ellipse cx="100" cy="88" rx="12" ry="14" fill="#2D272C"/><circle cx="60" cy="83" r="4" fill="white"/><circle cx="96" cy="83" r="4" fill="white"/><circle cx="67" cy="94" r="2" fill="white"/><circle cx="103" cy="94" r="2" fill="white"/><path d="M82 104q-7 8-14 1M82 104q7 8 14 1" stroke="#9B7180" stroke-width="1.7" stroke-linecap="round" fill="none"/><ellipse cx="82" cy="100" rx="4" ry="3" fill="#D87891"/><ellipse cx="48" cy="106" rx="10" ry="5" fill="#F4A4B5" opacity=".65"/><ellipse cx="116" cy="106" rx="10" ry="5" fill="#F4A4B5" opacity=".65"/><path d="M49 121Q82 139 115 121L111 134Q82 146 53 134Z" fill="#D86F55"/><path d="M105 132l16 22-19-3z" fill="#D86F55"/><ellipse cx="55" cy="166" rx="20" ry="9" fill="#F7E8BD" stroke="#9B7180" stroke-width="1.7"/><ellipse cx="109" cy="166" rx="20" ry="9" fill="#F7E8BD" stroke="#9B7180" stroke-width="1.7"/><path d="M49 128L82 118L115 128V161L82 171L49 161Z" fill="#FFFDF7" stroke="#C69368" stroke-width="2.5"/><path d="M82 118V171M49 128L82 140L115 128" stroke="#E5C5A3" stroke-width="2"/><path d="M60 138C68 132 74 149 83 140C91 132 97 149 106 139" stroke="#D87991" stroke-width="2.4" stroke-linecap="round" stroke-dasharray="4 3"/><circle cx="60" cy="138" r="3.5" fill="#8B79C8"/><text x="82" y="31" text-anchor="middle" font-size="16" fill="#D86F55">♡</text></svg>