<svg viewBox="0 0 164 190" fill="none" xmlns="http://www.w3.org/2000/svg"><ellipse cx="82" cy="179" rx="55" ry="8" fill="#D8C9D2" opacity=".6"/><path d="M121 122Q152 112 149 81Q140 63 121 84Q140 95 120 105" fill="#B8A19C" stroke="#E5A3BA" stroke-width="2"/><ellipse cx="82" cy="133" rx="48" ry="42" fill="#E6D7D0" stroke="#E5A3BA" stroke-width="2"/><ellipse cx="82" cy="145" rx="37" ry="25" fill="#FFF9F5"/><path d="M41 82L28 30L68 67ZM123 82L136 30L96 67Z" fill="#E6D7D0" stroke="#E5A3BA" stroke-width="2"/><path d="M43 72L35 43L61 68ZM121 72L129 43L103 68Z" fill="#E890A8"/><ellipse cx="82" cy="91" rx="52" ry="43" fill="#EDE1DB" stroke="#E5A3BA" stroke-width="2"/><path d="M72 51l5 15M84 49l-2 17M96 51l-5 15" stroke="#7A625C" stroke-width="3" stroke-linecap="round"/><ellipse cx="64" cy="88" rx="12" ry="14" fill="#2D272C"/><ellipse cx="100" cy="88" rx="12" ry="14" fill="#2D272C"/><circle cx="60" cy="83" r="4" fill="white"/><circle cx="96" cy="83" r="4" fill="white"/><circle cx="67" cy="94" r="2" fill="white"/><circle cx="103" cy="94" r="2" fill="white"/><path d="M82 104q-7 8-14 1M82 104q7 8 14 1" stroke="#9B7180" stroke-width="1.7" stroke-linecap="round" fill="none"/><ellipse cx="82" cy="100" rx="4" ry="3" fill="#D87891"/><ellipse cx="48" cy="106" rx="10" ry="5" fill="#F4A4B5" opacity=".65"/><ellipse cx="116" cy="106" rx="10" ry="5" fill="#F4A4B5" opacity=".65"/><ellipse cx="59" cy="173" rx="17" ry="8" fill="#EDE1DB" stroke="#9B7180" stroke-width="1.7"/><ellipse cx="105" cy="173" rx="17" ry="8" fill="#EDE1DB" stroke="#9B7180" stroke-width="1.7"/><path d="M49 128L82 118L115 128V161L82 171L49 161Z" fill="#FFFDF7" stroke="#C69368" stroke-width="2.5"/><path d="M82 118V171M49 128L82 140L115 128" stroke="#E5C5A3" stroke-width="2"/><path d="M60 138C68 132 74 149 83 140C91 132 97 149 106 139" stroke="#D87991" stroke-width="2.4" stroke-linecap="round" stroke-dasharray="4 3"/><circle cx="60" cy="138" r="3.5" fill="#8B79C8"/><text x="82" y="24" text-anchor="middle" font-size="17" fill="#D87991">✦</text></svg>